<?xml version="1.0" encoding="utf-8"?>
<!-- Generator: Adobe Illustrator 27.7.0, SVG Export Plug-In . SVG Version: 6.00 Build 0)  -->
<svg version="1.1" xmlns="http://www.w3.org/2000/svg" xmlns:xlink="http://www.w3.org/1999/xlink" x="0px" y="0px"
	 viewBox="0 0 988 193.3" style="enable-background:new 0 0 988 193.3;" xml:space="preserve">
<style type="text/css">
	.st0{fill:#4E4F4A;}
</style>
<g id="Layer_1">
	<g>
		<path class="st0" d="M247.1,65.6c4.5,0,8.1,0.4,11,1.2c2.9,0.8,5.1,2,6.8,3.4c1.7,1.5,2.8,3.2,3.5,5.1c0.6,2,0.9,4.1,0.9,6.3
			c0,2.6-0.6,5-1.7,7.2c-1.1,2.2-3.2,4-6.3,5.4c1.9,0.9,3.5,1.8,4.8,2.9c1.3,1.1,2.3,2.2,3,3.5c0.7,1.2,1.3,2.5,1.5,3.9
			c0.3,1.3,0.4,2.7,0.4,4.1c0,2.5-0.4,4.9-1.2,7.1c-0.8,2.2-2,4.2-3.8,5.8c-1.8,1.6-4.1,2.9-6.9,3.9c-2.9,0.9-6.4,1.4-10.5,1.4
			h-22.7V65.6H247.1z M256.8,88.5c1.6-1.5,2.4-3.6,2.4-6.4c0-2.9-0.9-5-2.8-6.3c-1.9-1.3-5.1-1.9-9.6-1.9h-10.8v16.9h12.3
			C252.3,90.7,255.2,90,256.8,88.5z M254.4,117.8c1.6-0.5,2.9-1.1,3.9-2c0.9-0.9,1.6-1.9,2-3.1c0.4-1.2,0.6-2.5,0.6-4
			c0-3.1-0.9-5.4-2.6-7.1c-1.7-1.6-4.8-2.4-9-2.4h-13.3v19.3h12.3C250.7,118.5,252.8,118.3,254.4,117.8z"/>
		<path class="st0" d="M284,122c-3.8-4.1-5.7-9.9-5.7-17.5c0-3.5,0.5-6.8,1.5-9.7c1-2.9,2.4-5.4,4.3-7.5c1.9-2.1,4.2-3.7,6.9-4.8
			c2.7-1.1,5.9-1.7,9.3-1.7c3.5,0,6.7,0.6,9.4,1.8c2.7,1.2,5,2.8,6.9,4.8c1.9,2.1,3.3,4.5,4.2,7.4c0.9,2.9,1.4,6,1.4,9.5
			c0,3.9-0.5,7.3-1.6,10.2c-1.1,2.9-2.6,5.4-4.6,7.5c-2,2-4.3,3.6-7,4.6c-2.7,1-5.7,1.5-8.9,1.5C293.2,128.2,287.8,126.1,284,122z
			 M309.3,116c1.9-2.8,2.9-6.7,2.9-11.6c0-4.9-1-8.7-2.9-11.5c-1.9-2.8-4.9-4.2-9-4.2c-4.1,0-7.1,1.4-9,4.2
			c-1.9,2.8-2.9,6.6-2.9,11.4c0,4.9,0.9,8.7,2.8,11.6c1.9,2.9,4.9,4.3,9.1,4.3C304.4,120.3,307.4,118.9,309.3,116z"/>
		<path class="st0" d="M336.2,122c-3.8-4.1-5.7-9.9-5.7-17.5c0-3.5,0.5-6.8,1.5-9.7c1-2.9,2.4-5.4,4.3-7.5c1.9-2.1,4.2-3.7,6.9-4.8
			c2.7-1.1,5.9-1.7,9.3-1.7c3.5,0,6.7,0.6,9.4,1.8c2.7,1.2,5,2.8,6.9,4.8c1.9,2.1,3.3,4.5,4.2,7.4c0.9,2.9,1.4,6,1.4,9.5
			c0,3.9-0.5,7.3-1.6,10.2c-1.1,2.9-2.6,5.4-4.6,7.5c-2,2-4.3,3.6-7,4.6c-2.7,1-5.7,1.5-8.9,1.5C345.4,128.2,340,126.1,336.2,122z
			 M361.5,116c1.9-2.8,2.9-6.7,2.9-11.6c0-4.9-1-8.7-2.9-11.5c-1.9-2.8-4.9-4.2-9-4.2c-4.1,0-7.1,1.4-9,4.2
			c-1.9,2.8-2.9,6.6-2.9,11.4c0,4.9,0.9,8.7,2.8,11.6c1.9,2.9,4.9,4.3,9.1,4.3C356.6,120.3,359.6,118.9,361.5,116z"/>
		<path class="st0" d="M393.7,99.5l19-17.2h11.4L408,97.4l17.6,29.4h-10.7L401,103l-7.3,6.5v17.3h-9.5V65.6h9.5V99.5z"/>
		<path class="st0" d="M462.4,124.4c-3.1,2.5-7.7,3.8-13.5,3.8c-7.1,0-12.5-2-16.2-6.1c-3.7-4.1-5.5-9.8-5.5-17.3
			c0-3.8,0.5-7.2,1.6-10.2c1.1-3,2.5-5.5,4.5-7.5c1.9-2,4.2-3.6,6.9-4.6c2.7-1.1,5.6-1.6,8.8-1.6c3.4,0,6.4,0.5,8.9,1.6
			c2.5,1.1,4.6,2.5,6.3,4.5c1.7,1.9,2.9,4.2,3.7,6.9c0.8,2.7,1.2,5.6,1.2,8.9v4.3h-32c0.1,4.1,1.1,7.3,3.1,9.9s4.9,3.8,8.8,3.8
			c3.1,0,5.4-0.6,6.9-1.8c1.5-1.2,2.6-2.9,3.1-5.1h9.4C467.5,118.2,465.5,121.8,462.4,124.4z M456.8,91.5c-1.7-2.1-4.5-3.2-8.2-3.2
			c-3.6,0-6.3,1.1-8.2,3.2c-1.9,2.1-3,5-3.3,8.6h22.3C459.4,96.5,458.5,93.6,456.8,91.5z"/>
		<path class="st0" d="M503.7,126.3c-2.3,1.3-5,1.9-8.1,1.9c-3.2,0-6-0.6-8.3-1.7c-2.3-1.1-4.3-2.8-5.8-4.8
			c-1.5-2.1-2.7-4.6-3.5-7.5c-0.8-2.9-1.2-6.1-1.2-9.6c0-3.3,0.4-6.3,1.2-9.1c0.8-2.8,2-5.3,3.5-7.4c1.5-2.1,3.4-3.8,5.7-5
			c2.3-1.3,4.9-1.9,7.8-2.1c0.6-0.1,1.1-0.1,1.7,0c0.6,0,1.2,0.1,1.8,0.1c2,0.2,3.9,0.8,5.8,1.7c1.9,0.9,3.6,2.4,5.4,4.4V65.6h9.7
			v61.2H510v-6.2C508.1,123.1,506.1,125,503.7,126.3z M509,96.5c-0.6-1.9-1.4-3.4-2.5-4.5c-1.1-1.1-2.3-1.9-3.7-2.4
			c-1.4-0.5-2.9-0.7-4.4-0.7c-3.6,0-6.4,1.3-8.4,3.9c-2,2.6-3,6.5-3,11.7c0,2.9,0.3,5.3,0.8,7.3c0.5,2,1.3,3.6,2.3,4.9
			c1,1.3,2.2,2.2,3.5,2.7c1.3,0.6,2.7,0.9,4.3,0.9c3.5,0,6.4-1.2,8.6-3.5c2.2-2.3,3.3-5.9,3.3-10.8v-2.3
			C509.9,100.8,509.6,98.4,509,96.5z"/>
		<path class="st0" d="M578.1,126.5c-2.6,1.1-5.7,1.7-9.3,1.7c-4.3,0-7.8-0.5-10.6-1.5c-2.8-1-5-2.4-6.7-4s-2.9-3.5-3.5-5.7
			c-0.7-2.1-1-4.3-1-6.4c0-2.3,0.4-4.3,1.1-6.1c0.7-1.8,1.7-3.4,3-4.8c1.2-1.4,2.6-2.6,4.2-3.7c1.6-1.1,3.2-2.1,4.8-3.1
			c-1.5-1.7-3-3.7-4.3-6.1c-1.3-2.3-2-4.9-2-7.6c0-2,0.4-3.9,1.1-5.6c0.7-1.7,1.8-3.2,3.1-4.4s2.9-2.2,4.8-2.9
			c1.9-0.7,3.9-1.1,6.2-1.1c4.3,0,7.7,1,10.3,3.1s4.1,4.8,4.6,8.2c0.1,0.5,0.2,0.9,0.2,1.4v1.4c-0.1,1.8-0.5,3.5-1.2,5
			c-0.7,1.5-1.6,2.8-2.6,4c-1.1,1.2-2.3,2.3-3.7,3.3c-1.4,1-2.8,1.9-4.2,2.7l12.9,15.2c0.8-2,1.4-4,1.7-6c0.3-2,0.5-4.1,0.6-6.3h8.8
			c-0.1,3.5-0.6,6.9-1.5,10.1c-1,3.2-2.3,6.1-3.9,8.8l9.3,10.9h-11.3l-3.9-4.5C583,124,580.7,125.4,578.1,126.5z M559,102.8
			c-1.5,1.7-2.3,3.9-2.3,6.4c0,1.6,0.2,3.1,0.6,4.5c0.4,1.4,1.1,2.5,2.1,3.5c1,1,2.3,1.7,3.9,2.3c1.6,0.6,3.7,0.9,6.1,0.9
			c2.4,0,4.4-0.4,6.1-1.1c1.7-0.7,3.1-1.6,4.2-2.8l-15.3-18.1C562.4,99.6,560.6,101.1,559,102.8z M571.3,87c0.8-0.7,1.6-1.4,2.2-2.2
			c0.6-0.8,1.1-1.7,1.5-2.7c0.4-1,0.6-2.1,0.6-3.3c0-2.2-0.6-3.8-1.7-5c-1.1-1.1-2.7-1.7-4.6-1.7c-4.3,0-6.5,2.3-6.5,7
			c0,1.1,0.2,2.1,0.6,3.1c0.4,1,0.8,1.9,1.4,2.7c0.5,0.8,1.1,1.6,1.7,2.3c0.6,0.7,1.1,1.3,1.6,1.8l0.7-0.3
			C569.6,88.2,570.4,87.6,571.3,87z"/>
		<path class="st0" d="M646.9,65.6c4.5,0,8.1,0.4,11,1.2c2.9,0.8,5.1,2,6.8,3.4c1.7,1.5,2.8,3.2,3.5,5.1c0.6,2,0.9,4.1,0.9,6.3
			c0,2.6-0.6,5-1.7,7.2c-1.1,2.2-3.2,4-6.3,5.4c1.9,0.9,3.5,1.8,4.8,2.9s2.3,2.2,3,3.5s1.3,2.5,1.5,3.9c0.3,1.3,0.4,2.7,0.4,4.1
			c0,2.5-0.4,4.9-1.2,7.1s-2,4.2-3.8,5.8c-1.8,1.6-4.1,2.9-6.9,3.9c-2.9,0.9-6.4,1.4-10.5,1.4h-22.7V65.6H646.9z M656.6,88.5
			c1.6-1.5,2.4-3.6,2.4-6.4c0-2.9-0.9-5-2.8-6.3c-1.9-1.3-5.1-1.9-9.6-1.9h-10.8v16.9h12.3C652.1,90.7,655,90,656.6,88.5z
			 M654.2,117.8c1.6-0.5,2.9-1.1,3.9-2c0.9-0.9,1.6-1.9,2-3.1s0.6-2.5,0.6-4c0-3.1-0.9-5.4-2.6-7.1c-1.7-1.6-4.8-2.4-9-2.4h-13.3
			v19.3h12.3C650.5,118.5,652.6,118.3,654.2,117.8z"/>
		<path class="st0" d="M700.5,125.9c-2.4,1.3-5.3,2-8.7,2c-2.1,0-4.1-0.3-5.9-0.8c-1.8-0.5-3.4-1.4-4.8-2.4
			c-1.3-1.1-2.4-2.5-3.2-4.2c-0.8-1.7-1.2-3.7-1.2-6c0-3.1,0.7-5.6,2.1-7.5c1.4-1.9,3.2-3.4,5.4-4.5c2.2-1.1,4.7-1.8,7.4-2.3
			c2.7-0.4,5.5-0.7,8.2-0.8l6.6-0.3v-1.9c0-3.4-0.8-5.7-2.4-7c-1.6-1.3-3.8-1.9-6.4-1.9c-3,0-5.3,0.5-6.7,1.5
			c-1.5,1-2.4,2.5-2.9,4.5l-8.9-0.9c0.8-4.3,2.8-7.5,5.9-9.5c3.1-2,7.5-3,12.9-3c3.5,0,6.5,0.5,8.8,1.4c2.3,0.9,4.2,2.2,5.5,3.8
			c1.4,1.6,2.3,3.5,2.9,5.7c0.5,2.2,0.8,4.6,0.8,7.2v27.8h-9.3V121C704.9,123,702.9,124.6,700.5,125.9z M693.1,106.9
			c-1.8,0.5-3.2,1-4.2,1.8c-1,0.7-1.6,1.5-1.9,2.5c-0.3,0.9-0.5,2-0.5,3c0,1.9,0.6,3.5,1.8,4.5c1.2,1.1,3,1.6,5.4,1.6
			c4.3,0,7.5-1.1,9.5-3.3c2.1-2.2,3.1-5.1,3.1-8.8v-2.6l-6.3,0.3C697.3,106.1,694.9,106.5,693.1,106.9z"/>
		<path class="st0" d="M736.5,126.8h-9.8V65.6h9.8V126.8z"/>
		<path class="st0" d="M768.6,125.9c-2.4,1.3-5.3,2-8.7,2c-2.1,0-4.1-0.3-5.9-0.8c-1.8-0.5-3.4-1.4-4.8-2.4
			c-1.3-1.1-2.4-2.5-3.2-4.2c-0.8-1.7-1.2-3.7-1.2-6c0-3.1,0.7-5.6,2.1-7.5c1.4-1.9,3.2-3.4,5.4-4.5c2.2-1.1,4.7-1.8,7.4-2.3
			c2.7-0.4,5.5-0.7,8.2-0.8l6.6-0.3v-1.9c0-3.4-0.8-5.7-2.4-7c-1.6-1.3-3.8-1.9-6.4-1.9c-3,0-5.3,0.5-6.7,1.5
			c-1.5,1-2.4,2.5-2.9,4.5l-8.9-0.9c0.8-4.3,2.8-7.5,5.9-9.5c3.1-2,7.5-3,12.9-3c3.5,0,6.5,0.5,8.8,1.4c2.3,0.9,4.2,2.2,5.5,3.8
			c1.4,1.6,2.3,3.5,2.9,5.7c0.5,2.2,0.8,4.6,0.8,7.2v27.8h-9.3V121C773.1,123,771,124.6,768.6,125.9z M761.2,106.9
			c-1.8,0.5-3.2,1-4.2,1.8c-1,0.7-1.6,1.5-1.9,2.5c-0.3,0.9-0.5,2-0.5,3c0,1.9,0.6,3.5,1.8,4.5c1.2,1.1,3,1.6,5.4,1.6
			c4.3,0,7.5-1.1,9.5-3.3c2.1-2.2,3.1-5.1,3.1-8.8v-2.6l-6.3,0.3C765.4,106.1,763,106.5,761.2,106.9z"/>
		<path class="st0" d="M804.2,88.7c2-2.7,4.2-4.7,6.7-6c2.5-1.3,5.2-1.9,8-1.9c9.9,0,14.9,5.5,14.9,16.5v29.5h-9.8V98.9
			c0-3.6-0.7-6.1-2-7.6c-1.3-1.5-3.3-2.2-5.8-2.2c-1.7,0-3.3,0.3-4.8,0.9c-1.5,0.6-2.7,1.4-3.7,2.4c-1,1-1.8,2.2-2.4,3.6
			c-0.6,1.3-0.9,2.8-0.9,4.2v26.6h-9.7V82.2h9.4V88.7z"/>
		<path class="st0" d="M878.1,123.7c-3.2,3-7.8,4.5-13.8,4.5c-3.6,0-6.7-0.6-9.4-1.7c-2.7-1.1-4.9-2.7-6.6-4.8
			c-1.8-2.1-3.1-4.5-3.9-7.4c-0.9-2.9-1.3-6.1-1.3-9.6c0-3.5,0.5-6.8,1.5-9.7c1-2.9,2.4-5.5,4.2-7.5c1.9-2.1,4.1-3.7,6.8-4.8
			c2.7-1.1,5.7-1.7,9.2-1.7c3.1,0,5.8,0.4,8,1.2c2.2,0.8,4,1.9,5.4,3.3c1.4,1.4,2.5,3,3.3,4.8c0.8,1.8,1.4,3.7,1.7,5.7l-9.7,1.5
			c-0.5-2.5-1.3-4.6-2.6-6.3c-1.3-1.7-3.4-2.5-6.5-2.5c-2.2,0-4,0.5-5.4,1.4c-1.4,0.9-2.6,2.1-3.4,3.6c-0.9,1.5-1.5,3.1-1.8,5
			c-0.4,1.9-0.6,3.8-0.6,5.7c0,2.2,0.2,4.3,0.6,6.3c0.4,1.9,1,3.6,1.9,5c0.9,1.4,2,2.5,3.4,3.3c1.4,0.8,3.2,1.2,5.2,1.2
			c3,0,5.2-0.8,6.8-2.4c1.5-1.6,2.5-3.8,2.9-6.7h9.9C883.2,116.5,881.3,120.7,878.1,123.7z"/>
		<path class="st0" d="M926.5,124.4c-3.1,2.5-7.7,3.8-13.5,3.8c-7.1,0-12.5-2-16.2-6.1c-3.7-4.1-5.5-9.8-5.5-17.3
			c0-3.8,0.5-7.2,1.6-10.2c1.1-3,2.5-5.5,4.5-7.5c1.9-2,4.2-3.6,6.9-4.6c2.7-1.1,5.6-1.6,8.8-1.6c3.4,0,6.4,0.5,8.9,1.6
			c2.5,1.1,4.6,2.5,6.3,4.5c1.7,1.9,2.9,4.2,3.7,6.9c0.8,2.7,1.2,5.6,1.2,8.9v4.3h-32c0.1,4.1,1.1,7.3,3.1,9.9
			c1.9,2.5,4.9,3.8,8.8,3.8c3.1,0,5.4-0.6,6.9-1.8c1.5-1.2,2.6-2.9,3.1-5.1h9.4C931.7,118.2,929.7,121.8,926.5,124.4z M921,91.5
			c-1.7-2.1-4.5-3.2-8.2-3.2c-3.6,0-6.3,1.1-8.2,3.2c-1.9,2.1-3,5-3.3,8.6h22.3C923.5,96.5,922.7,93.6,921,91.5z"/>
		<path class="st0" d="M967.9,126.3c-2.3,1.3-5,1.9-8.1,1.9c-3.2,0-6-0.6-8.3-1.7c-2.3-1.1-4.3-2.8-5.8-4.8
			c-1.5-2.1-2.7-4.6-3.5-7.5c-0.8-2.9-1.2-6.1-1.2-9.6c0-3.3,0.4-6.3,1.2-9.1c0.8-2.8,2-5.3,3.5-7.4c1.5-2.1,3.4-3.8,5.7-5
			c2.3-1.3,4.9-1.9,7.8-2.1c0.6-0.1,1.1-0.1,1.7,0s1.2,0.1,1.8,0.1c2,0.2,3.9,0.8,5.8,1.7c1.9,0.9,3.6,2.4,5.4,4.4V65.6h9.7v61.2
			h-9.5v-6.2C972.3,123.1,970.2,125,967.9,126.3z M973.1,96.5c-0.6-1.9-1.4-3.4-2.5-4.5c-1.1-1.1-2.3-1.9-3.7-2.4
			c-1.4-0.5-2.9-0.7-4.4-0.7c-3.6,0-6.4,1.3-8.4,3.9c-2,2.6-3,6.5-3,11.7c0,2.9,0.3,5.3,0.8,7.3c0.5,2,1.3,3.6,2.3,4.9
			c1,1.3,2.2,2.2,3.5,2.7c1.3,0.6,2.7,0.9,4.3,0.9c3.5,0,6.4-1.2,8.6-3.5c2.2-2.3,3.3-5.9,3.3-10.8v-2.3
			C974,100.8,973.7,98.4,973.1,96.5z"/>
	</g>
	<g>
		<path class="st0" d="M191.4,74.4c-5.2-20.6-16.5-37.2-33-50.5C140.9,10,120.7,4.1,98.7,3.6c-8.8-0.2-17.5,1.9-26.1,4.2
			C53.5,13,38,23.9,25.8,39.4C12,57,4.6,76.9,5.8,99.5c0.2,4.4-0.1,8.9,0.9,13c1.6,6.7,3.4,13.4,6.2,19.8
			c7.1,16.4,17.9,29.7,32.2,40.1c16.4,11.9,34.9,17.4,56.2,17.2c7.7,0.3,16.2-1.2,24.8-3.6c18.8-5.2,34.2-15.5,46.6-30.4
			c11.7-13.9,18.8-29.7,20.6-47.9C194.4,96.5,194.1,85.4,191.4,74.4z M106.7,181.1c-52.6,4.7-93.8-40.5-91.9-84.5
			c-1.2-46.4,38.4-85,85.3-84.3c48.2,0.7,85.4,37,85.2,84.6C185.1,144.5,149.3,177.4,106.7,181.1z"/>
		<path class="st0" d="M165.2,101.2c-2.7-4.2-6.6-6.8-11.6-8.9c13.4-5.9,13.1-23.8,3-31.6c-4.9-3.8-10.6-4.3-16.3-4.5
			c-7.4-0.3-14.7,0.1-22.1-0.2c-2.7-0.1-3.3,0.6-3.3,3.2c0.1,24.2,0.1,48.5,0.1,72.7c0,2.6,1,3,3.3,3c8.7-0.1,17.5-0.1,26.2,0
			c5.6,0.1,10.5-1.4,15.2-4.6C169.1,123.6,170.5,109.6,165.2,101.2z M124.7,85.8c0.2-3,0-6,0-9c0,0,0,0,0,0c0-3.2,0-6.5,0-9.7
			c0-1.2,0-2.4,1.6-2.4c6.6,0,13.2-0.8,19.6,1.1c6.5,2,9.1,6.5,8.2,14.1c-0.5,4-6.6,8.9-11.5,8.9c-5,0.1-10-0.1-15,0.1
			C125,89.1,124.5,88.1,124.7,85.8z M154.1,122.2c-2.4,2.3-5.5,3.4-8.7,3.5c-5.8,0.2-11.7,0-17.6,0.2c-2.8,0.1-3.3-1-3.2-3.5
			c0.2-3.5,0.1-7,0.1-10.5c0,0,0,0,0,0c0-3.9,0.1-7.7,0-11.6c0-1.7,0.3-2.6,2.2-2.6c6.3,0.1,12.7-0.7,19,0.3c5.4,0.9,9.8,3.8,11.7,9
			C159.7,112.7,158.6,118,154.1,122.2z"/>
		<path class="st0" d="M85.1,95.7L85.1,95.7c0-12-0.1-24,0.1-36c0-3-0.9-4-3.9-3.8c-9.4,0.5-18.9-0.5-28.3,0.7
			c-6.4,0.8-10.8,3.8-14.6,8.6c-5,6.4-3.5,19.5,4.3,24.6c1.3,0.8,4.4,2,0.5,4c-9.4,4.7-13,12.2-11.3,22.8
			c1.6,9.4,11.7,18.1,21.2,18.1c9.5,0,19-0.2,28.5,0c3.1,0.1,3.6-1.1,3.6-3.9C85,119.2,85.1,107.5,85.1,95.7z M75.4,123.6
			c0,1.8-0.9,2-2.3,2c-3.1-0.1-6.2,0-9.4,0c-4.2-0.3-8.4,0.5-12.5-0.6c-7-1.8-10.6-9.4-10.3-14c0.5-6.4,6.3-12.3,12.4-13
			c6.3-0.7,12.7-0.5,19-0.6c2.6-0.1,3.6,0.7,3.6,3.4C75.6,108.4,75.4,116,75.4,123.6z M75.4,87c0,1.8-1,2-2.4,2c-2.6,0-5.2,0-8.4,0
			c-3.1-0.2-6.8,0.3-10.5-0.7c-5.1-1.4-10-7.5-9.5-12.2c0.7-6,5.2-10.2,11.3-11.1c5.7-0.9,11.4-0.2,17.1-0.5
			c2.1-0.1,2.8,0.7,2.8,2.8C76.2,73.9,75.3,80.5,75.4,87z"/>
		<path class="st0" d="M132.4,151.6c-0.3,4.8-0.3,5.2-4.6,5.3c-11.6,0.1-23.2,0.1-34.8,0.1c-7,0-14,0-20.9,0c-5.1,0-4.8-0.1-5.1-5.5
			c-0.2-4.4,2.5-3.7,5.1-3.8c6.7-0.2,13.4,0.4,20.1-0.8c2.8-0.5,3.5-1.7,3.5-4.5c-0.1-17.1-0.1-34.2-0.1-51.3h0
			c0-16.9,0-33.7,0-50.6c0-2.2-0.4-4.4,3.1-3.8c2.5,0.4,6-1.6,5.9,3.8c-0.2,33.5-0.1,66.9-0.1,100.4c0,6.2,0.3,6.6,6.7,6.7
			c5.6,0.1,11.2,0.2,16.9,0.1C131.1,147.5,132.7,147.9,132.4,151.6z"/>
	</g>
</g>
<g id="Layer_2">
</g>
</svg>
